<svg width="164" height="35" viewBox="0 0 164 35" fill="none" xmlns="http://www.w3.org/2000/svg">
<g clip-path="url(#clip0_41_226)">
<mask id="mask0_41_226" style="mask-type:luminance" maskUnits="userSpaceOnUse" x="0" y="0" width="164" height="35">
<path d="M163.71 0H0V35H163.71V0Z" fill="white"/>
</mask>
<g mask="url(#mask0_41_226)">
<mask id="mask1_41_226" style="mask-type:luminance" maskUnits="userSpaceOnUse" x="0" y="0" width="164" height="35">
<path d="M163.71 0H0V35H163.71V0Z" fill="white"/>
</mask>
<g mask="url(#mask1_41_226)">
<path d="M34.5073 17.5016C34.5073 20.9623 33.4956 24.3452 31.6001 27.2227C29.7046 30.1001 27.0105 32.3429 23.8584 33.6673C20.7063 34.9917 17.2378 35.3382 13.8916 34.6632C10.5453 33.9881 7.47149 32.3217 5.05889 29.8748C2.64628 27.4278 1.00322 24.3101 0.337472 20.9159C-0.328278 17.5218 0.0131826 14.0036 1.31868 10.8063C2.62417 7.60901 4.83506 4.87617 7.67178 2.95336C10.5085 1.03055 13.8436 0.00413325 17.2555 0.00390629C19.5209 0.00375558 21.7643 0.456236 23.8574 1.33551C25.9504 2.21478 27.8523 3.50363 29.4543 5.12846C31.0563 6.75328 32.3271 8.68227 33.1941 10.8053C34.0611 12.9283 34.5073 15.2037 34.5073 17.5016Z" fill="white"/>
<path d="M2.88659 27.1959C0.479037 23.5303 -0.47714 19.0786 0.208911 14.7294C0.894962 10.3801 3.17277 6.45327 6.5877 3.7326C10.0026 1.01192 14.3034 -0.30244 18.6317 0.0518536C22.9601 0.406148 26.9975 2.40304 29.9381 5.64394C26.6051 3.3328 20.2504 4.43788 14.1898 8.37624C19.6847 4.97263 25.5224 4.43444 27.8643 7.47427C30.5569 10.9662 27.7263 17.7734 21.5379 22.6792C15.3494 27.5849 9.0739 28.5075 7.91088 25.1992C7.48323 23.9644 7.14722 22.3889 9.64749 17.4154L12.5799 17.4303L13.1456 16.2277H10.16L11.9825 12.248C11.9825 12.248 10.5254 12.248 10.5118 12.2584C8.46277 14.2135 5.96695 15.6216 3.24862 16.3562L2.77458 17.4866H4.7929C2.53587 21.083 1.84236 24.6277 2.88659 27.1959Z" fill="#D71920"/>
<path d="M34.5062 17.501C34.5059 20.9967 33.4734 24.4122 31.5417 27.3072C29.6101 30.2022 26.868 32.444 23.6687 33.7437C20.4694 35.0434 16.9597 35.3415 13.5919 34.5993C10.2241 33.8572 7.15269 32.109 4.77344 29.58C8.55891 32.2194 16.2678 30.4235 23.0751 25.03C29.8145 19.6905 33.3986 12.6274 31.8996 8.24609C33.6066 11.022 34.5083 14.2294 34.5017 17.501" fill="#D71920"/>
<path d="M153.789 25.9376L152.791 25.8298V25.8734L153.594 26.1855L155.469 27.2734V27.5924L153.59 28.7331L152.79 29.0555V29.0911L153.784 28.9476H156.396V29.8909H151.379V28.9798L153.676 27.6199L154.249 27.379V27.3503L153.659 27.1311L151.38 25.8424V24.9404H156.401V25.9376H153.789Z" fill="#16062A"/>
<path d="M156.398 22.3535H151.377V23.3507H156.398V22.3535Z" fill="#16062A"/>
<path d="M156.196 17.6094C156.314 17.7881 156.393 17.9898 156.43 18.2015C156.476 18.445 156.5 18.6925 156.5 18.9405C156.501 19.2358 156.455 19.5294 156.362 19.8092C156.267 20.0825 156.112 20.3305 155.909 20.5345C155.678 20.7579 155.401 20.9282 155.099 21.0337C154.71 21.1662 154.3 21.2294 153.89 21.2207C153.468 21.2312 153.048 21.1619 152.651 21.0164C152.349 20.8955 152.076 20.7122 151.848 20.4782C151.65 20.2674 151.5 20.0151 151.409 19.7392C151.321 19.4766 151.276 19.2016 151.274 18.9245C151.271 18.6768 151.291 18.4293 151.334 18.1855C151.364 18.0149 151.41 17.8477 151.472 17.6863L152.304 17.8836C152.247 18.0102 152.209 18.1443 152.19 18.2818C152.164 18.4661 152.152 18.6522 152.155 18.8384C152.148 19.022 152.183 19.2047 152.257 19.3726C152.33 19.5405 152.441 19.689 152.58 19.8069C152.962 20.0847 153.43 20.2156 153.899 20.1764C154.137 20.1789 154.375 20.15 154.606 20.0904C154.804 20.0413 154.989 19.951 155.151 19.8253C155.303 19.7069 155.425 19.5545 155.509 19.38C155.596 19.1865 155.638 18.9753 155.632 18.7627C155.636 18.5762 155.615 18.3901 155.569 18.2095C155.532 18.0711 155.477 17.9383 155.406 17.8148L156.206 17.614L156.196 17.6094Z" fill="#16062A"/>
<path d="M151.422 16.4364C151.401 16.3216 151.384 16.2069 151.369 16.0738C151.354 15.9406 151.341 15.819 151.331 15.6893C151.32 15.5597 151.312 15.4346 151.306 15.3129C151.299 15.1913 151.299 15.0834 151.299 14.979C151.298 14.7429 151.32 14.5072 151.366 14.2756C151.404 14.0586 151.478 13.8499 151.585 13.6582C151.691 13.4766 151.841 13.3256 152.021 13.2198C152.233 13.1031 152.473 13.0461 152.714 13.0546C153.071 13.0384 153.424 13.1403 153.719 13.3449C153.977 13.5386 154.165 13.8121 154.256 14.1241L154.482 13.7684L156.397 12.6025V13.75L154.421 14.9113L154.33 15.4357H156.389V16.4329H151.418L151.422 16.4364ZM152.179 14.9079C152.179 15.0088 152.179 15.1087 152.186 15.2097C152.186 15.2868 152.195 15.3638 152.211 15.4392H153.668V15.0157C153.678 14.7813 153.614 14.5498 153.484 14.3559C153.407 14.2679 153.311 14.1996 153.203 14.1565C153.096 14.1134 152.98 14.0968 152.865 14.108C152.771 14.1027 152.678 14.1182 152.591 14.1535C152.504 14.1888 152.426 14.243 152.362 14.3123C152.231 14.4812 152.167 14.6936 152.182 14.9079H152.179Z" fill="#16062A"/>
<path d="M153.887 11.9707C153.199 12.016 152.516 11.8181 151.956 11.4107C151.728 11.2155 151.548 10.9693 151.43 10.6915C151.313 10.4137 151.26 10.1119 151.277 9.80992C151.269 9.4815 151.333 9.15542 151.465 8.85517C151.584 8.58838 151.768 8.35634 151.999 8.18042C152.244 7.99027 152.524 7.85352 152.824 7.77878C153.173 7.68901 153.532 7.64542 153.892 7.64911C154.582 7.60299 155.266 7.80222 155.827 8.21255C156.055 8.40687 156.235 8.65246 156.353 8.92977C156.471 9.20708 156.523 9.50845 156.506 9.80992C156.514 10.1402 156.451 10.4684 156.322 10.7716C156.202 11.0372 156.02 11.269 155.791 11.4463C155.544 11.6319 155.264 11.7671 154.966 11.8445C154.616 11.936 154.256 11.9808 153.894 11.9776L153.887 11.9707ZM153.887 10.923C154.122 10.925 154.357 10.9035 154.587 10.8588C154.78 10.8228 154.965 10.7549 155.136 10.6579C155.282 10.574 155.405 10.456 155.497 10.3137C155.615 10.0958 155.652 9.84192 155.601 9.59862C155.55 9.35532 155.414 9.139 155.218 8.98943C154.811 8.76313 154.349 8.66222 153.887 8.6991C153.659 8.69835 153.432 8.7187 153.208 8.75993C153.015 8.79718 152.828 8.8625 152.653 8.95386C152.503 9.03589 152.376 9.15414 152.282 9.29812C152.191 9.45443 152.146 9.63332 152.15 9.81451C152.145 9.97712 152.181 10.1384 152.254 10.2829C152.328 10.4274 152.437 10.5503 152.571 10.6396C152.972 10.8628 153.428 10.9637 153.884 10.9299L153.887 10.923Z" fill="#16062A"/>
<path d="M160.82 7.94118H160.017V10.0986H159.702V7.94118H158.91V7.6543H160.825L160.82 7.94118Z" fill="#16062A"/>
<path d="M163.71 10.0986H163.405V8.0525L162.705 10.0986H162.419L161.732 8.01692L161.725 10.0986H161.414V7.6543H161.892L162.465 9.38364C162.465 9.38364 162.49 9.45594 162.528 9.5879C162.55 9.63987 162.565 9.69416 162.575 9.74971L162.709 9.35495L163.286 7.6543H163.711L163.71 10.0986Z" fill="#16062A"/>
<path d="M83.7266 7.65039H99.4523V11.3466H88.4319V16.5783H98.5721V20.271H88.4319V26.1958H99.7849V29.8897H83.7266V7.65039Z" fill="#16062A"/>
<path d="M117.006 29.8897L108.957 15.1014L108.897 15.1656V29.8897H104.496V7.65039H110.322L118.325 22.1806L118.388 22.1197V7.65039H122.786V29.8897H117.006Z" fill="#16062A"/>
<path d="M135.268 7.65039H127.801V29.892H135.268C142.107 29.9529 146.355 26.501 146.355 18.7712C146.355 11.0414 142.106 7.58498 135.268 7.65383M134.942 26.1958H132.513V11.5187H134.948C140.531 11.4545 141.355 15.2253 141.355 18.7678C141.355 22.3102 140.53 26.2612 134.948 26.1924" fill="#16062A"/>
<path d="M39.5234 7.65039H57.2855V11.3466H50.7576V29.8897H46.0513V11.3466H39.5234V7.65039Z" fill="#16062A"/>
<path d="M75.3467 20.4765C76.5787 20.0129 77.6408 19.1769 78.3894 18.0814C79.138 16.9859 79.5371 15.6838 79.5326 14.3509C79.5323 14.0218 79.5085 13.6931 79.4614 13.3674C79.328 12.3805 78.9673 11.4393 78.4085 10.6201C77.8497 9.8009 77.1085 9.12672 76.245 8.6522C76.0323 8.51564 74.6532 7.65039 70.5769 7.65039C70.4955 7.65039 70.4174 7.65039 70.3393 7.65039H61.0352V29.8932H65.7371V21.0571H70.715C72.038 23.9298 73.1969 26.8774 74.1859 29.8852H79.9705L75.3569 20.4753L75.3467 20.4765ZM65.7303 11.4224H71.2852C73.1496 11.451 74.3172 12.1327 74.5264 13.7174V13.7461C74.5332 13.8001 74.5366 13.8609 74.5412 13.9114C74.5457 13.9619 74.5479 14.0261 74.5513 14.0766V14.2866C74.5332 16.2168 73.3238 17.2438 71.2818 17.2702H65.7269V11.4258L65.7303 11.4224Z" fill="#16062A"/>
</g>
</g>
</g>
<defs>
<clipPath id="clip0_41_226">
<rect width="164" height="35" fill="white"/>
</clipPath>
</defs>
</svg>
