<svg width="137" height="35" viewBox="0 0 137 35" fill="none" xmlns="http://www.w3.org/2000/svg">
<g clip-path="url(#clip0_41_301)">
<path d="M86.4892 19.1953L83.5295 18.9219C81.5563 18.7578 80.789 18.0469 80.789 16.8984C80.789 15.4766 81.9948 14.6016 84.2968 14.6016C86.4892 14.6016 87.5854 15.5312 87.7498 17.1172H94.7107C94.2722 12.5234 91.0384 9.29688 84.4613 9.29688C77.6101 9.29688 73.8282 12.7969 73.8282 17.3906C73.8282 21.7109 76.185 24.0625 82.0496 24.5547L85.0094 24.7734C87.3114 24.9375 88.1335 25.7031 88.1335 27.0703C88.1335 28.4922 86.9277 29.5859 84.4613 29.5859C82.1593 29.5859 80.789 28.5469 80.5698 26.7422H73.2253C73.883 31.7188 77.3908 34.9453 84.4613 34.9453C91.3125 34.9453 95.1492 31.4453 95.1492 26.6875C95.0943 22.0938 92.5731 19.7422 86.4892 19.1953ZM62.373 9.29688C57.9882 9.29688 55.4121 11.5938 54.1515 16.2422H53.713V9.67969H46.807V34.5625H54.1515V20.0703C54.1515 16.7344 55.8506 14.9297 58.92 14.9297C61.9893 14.9297 63.4692 16.7891 63.4692 20.0156V34.5078H70.8137V18.7578C70.8685 12.7422 67.6895 9.29688 62.373 9.29688ZM39.6269 0C37.1057 0 35.2422 1.64062 35.2422 4.15625C35.2422 6.67188 37.1057 8.3125 39.5721 8.3125C42.0386 8.3125 43.9021 6.67188 43.9021 4.15625C43.9569 1.69531 42.0934 0 39.6269 0ZM43.2992 9.67969H35.9547V34.5625H43.2992V9.67969ZM106.713 4.42969H102C101.835 8.42188 100.136 10.1719 96.3002 10.5V15.5312H99.3147V26.4688C99.3147 31.9922 102.438 34.9453 108.741 34.9453C109.892 34.9453 111.098 34.7812 112.249 34.5078V28.6016C111.646 28.7109 111.043 28.7656 110.495 28.7109C107.865 28.7109 106.713 27.7266 106.713 24.9375V15.5312H113.181V9.67969H106.713V4.42969ZM125.897 9.29688C119.484 9.29688 115.647 12.4141 114.935 18.0469H122.005C122.225 16.0781 123.485 15.0938 125.732 15.0938C127.98 15.0938 129.021 16.1328 129.021 17.6094C129.021 18.8125 128.254 19.4688 126.226 19.8516L122.882 20.4531C116.963 21.5469 114.716 23.9531 114.716 27.8359C114.716 32.2656 117.84 35 122.17 35C125.678 35 127.98 33.3594 129.021 29.2578H129.46V34.5625H136.42V18.3203C136.366 12.6875 133.022 9.29688 125.897 9.29688ZM125.075 29.9688C123.102 29.9688 121.951 28.9297 121.951 27.3438C121.951 26.0312 122.718 25.1562 124.691 24.7188L126.061 24.3906C127.267 24.1172 128.144 23.7344 129.021 23.0234V25.7031C129.021 28.7109 127.432 29.9688 125.075 29.9688Z" fill="#003D29"/>
<path d="M23.5682 5.96094C22.0335 5.96094 20.9921 6.61719 20.0055 8.03906L17.1554 12.1406V0.382812H10.2494V12.1406L7.39931 8.03906C6.41273 6.61719 5.31654 5.96094 3.83668 5.96094C1.53467 5.96094 0.0548097 7.65625 0 9.73437C0 11.4844 0.822145 12.6875 2.57605 13.7812L13.6476 20.8906L24.7192 13.7812C26.4731 12.6328 27.35 11.4844 27.2952 9.73437C27.35 7.65625 25.8702 5.96094 23.5682 5.96094Z" fill="#0AAD0A"/>
<path d="M13.7025 22.5859C20.2797 22.5859 25.7059 27.5078 25.7059 34.5625H1.69922C1.69922 27.5078 7.12538 22.5859 13.7025 22.5859Z" fill="#FF7009"/>
</g>
<defs>
<clipPath id="clip0_41_301">
<rect width="137" height="35" fill="white"/>
</clipPath>
</defs>
</svg>
