<svg width="138" height="35" viewBox="0 0 138 35" fill="none" xmlns="http://www.w3.org/2000/svg">
<g clip-path="url(#clip0_41_252)">
<path d="M44.123 27.5592L45.8457 23.5464C47.7073 24.9397 50.1802 25.6643 52.6252 25.6643C54.4313 25.6643 55.5705 24.9676 55.5705 23.9087C55.5427 20.9549 44.7621 23.2678 44.6787 15.8553C44.6509 12.0934 47.9851 9.19531 52.7086 9.19531C55.5149 9.19531 58.3212 9.89197 60.3217 11.4803L58.7102 15.5767C56.8764 14.4063 54.598 13.5703 52.4307 13.5703C50.9581 13.5703 49.9857 14.267 49.9857 15.1587C50.0134 18.0568 60.8774 16.4684 60.9886 23.5464C60.9886 27.392 57.7377 30.095 53.0698 30.095C49.6522 30.095 46.5125 29.2869 44.123 27.5592Z" fill="black"/>
<path d="M110.225 22.0974C109.364 23.6021 107.752 24.6332 105.89 24.6332C103.14 24.6332 100.917 22.4039 100.917 19.6451C100.917 16.8864 103.14 14.6571 105.89 14.6571C107.752 14.6571 109.364 15.6881 110.225 17.1929L114.976 14.5456C113.198 11.3689 109.78 9.19531 105.89 9.19531C100.139 9.19531 95.4707 13.8768 95.4707 19.6451C95.4707 25.4135 100.139 30.095 105.89 30.095C109.808 30.095 113.198 27.9493 114.976 24.7447L110.225 22.0974Z" fill="black"/>
<path d="M69.323 0.529297H63.377V29.7053H69.323V0.529297Z" fill="black"/>
<path d="M117.309 0.529297V29.7053H123.255V20.9553L130.312 29.7053H137.925L128.951 19.3111L137.258 9.61369H129.979L123.255 17.667V0.529297H117.309Z" fill="black"/>
<path d="M86.9942 22.1531C86.1329 23.5743 84.3546 24.6332 82.3541 24.6332C79.6034 24.6332 77.3806 22.4039 77.3806 19.6451C77.3806 16.8864 79.6034 14.6571 82.3541 14.6571C84.3546 14.6571 86.1329 15.7717 86.9942 17.2208V22.1531ZM86.9942 9.6133V11.9819C86.0217 10.3378 83.6044 9.19531 81.076 9.19531C75.8524 9.19531 71.7402 13.8211 71.7402 19.6173C71.7402 25.4135 75.8524 30.095 81.076 30.095C83.6044 30.095 86.0217 28.9525 86.9942 27.3084V29.677H92.9402V9.6133H86.9942Z" fill="black"/>
<path d="M7.36261 22.1256C7.36261 24.1598 5.72329 25.804 3.69498 25.804C1.66667 25.804 0.0273438 24.1598 0.0273438 22.1256C0.0273438 20.0914 1.66667 18.4473 3.69498 18.4473H7.36261V22.1256Z" fill="#E01E5A"/>
<path d="M9.19727 22.1256C9.19727 20.0914 10.8366 18.4473 12.8649 18.4473C14.8932 18.4473 16.5325 20.0914 16.5325 22.1256V31.3215C16.5325 33.3557 14.8932 34.9998 12.8649 34.9998C10.8366 34.9998 9.19727 33.3557 9.19727 31.3215V22.1256Z" fill="#E01E5A"/>
<path d="M12.8649 7.35669C10.8366 7.35669 9.19727 5.71258 9.19727 3.67835C9.19727 1.64411 10.8366 0 12.8649 0C14.8932 0 16.5325 1.64411 16.5325 3.67835V7.35669H12.8649Z" fill="#36C5F0"/>
<path d="M12.8645 9.22363C14.8928 9.22363 16.5321 10.8677 16.5321 12.902C16.5321 14.9362 14.8928 16.5803 12.8645 16.5803H3.66763C1.63932 16.5803 0 14.9362 0 12.902C0 10.8677 1.63932 9.22363 3.66763 9.22363H12.8645Z" fill="#36C5F0"/>
<path d="M27.5625 12.902C27.5625 10.8677 29.2018 9.22363 31.2301 9.22363C33.2584 9.22363 34.8978 10.8677 34.8978 12.902C34.8978 14.9362 33.2584 16.5803 31.2301 16.5803H27.5625V12.902Z" fill="#2EB67D"/>
<path d="M25.7298 12.9021C25.7298 14.9363 24.0905 16.5804 22.0622 16.5804C20.0339 16.5804 18.3945 14.9363 18.3945 12.9021V3.67835C18.3945 1.64411 20.0339 0 22.0622 0C24.0905 0 25.7298 1.64411 25.7298 3.67835V12.9021Z" fill="#2EB67D"/>
<path d="M22.0622 27.6426C24.0905 27.6426 25.7298 29.2867 25.7298 31.3209C25.7298 33.3551 24.0905 34.9993 22.0622 34.9993C20.0339 34.9993 18.3945 33.3551 18.3945 31.3209V27.6426H22.0622Z" fill="#ECB22E"/>
<path d="M22.0622 25.804C20.0339 25.804 18.3945 24.1598 18.3945 22.1256C18.3945 20.0914 20.0339 18.4473 22.0622 18.4473H31.259C33.2874 18.4473 34.9267 20.0914 34.9267 22.1256C34.9267 24.1598 33.2874 25.804 31.259 25.804H22.0622Z" fill="#ECB22E"/>
</g>
<defs>
<clipPath id="clip0_41_252">
<rect width="138" height="35" fill="white"/>
</clipPath>
</defs>
</svg>
