<svg width="144" height="35" viewBox="0 0 144 35" fill="none" xmlns="http://www.w3.org/2000/svg">
<mask id="mask0_41_269" style="mask-type:luminance" maskUnits="userSpaceOnUse" x="0" y="0" width="144" height="35">
<path d="M143.836 0H0V35H143.836V0Z" fill="white"/>
</mask>
<g mask="url(#mask0_41_269)">
<path fill-rule="evenodd" clip-rule="evenodd" d="M79.9188 22.2522C79.9188 22.5264 79.8733 22.8462 79.8279 23.0747C79.4187 24.2627 78.3277 25.0394 77.0548 25.0394C75.9183 25.0394 75.0546 24.3997 75.0546 23.029C75.0546 20.9272 77.3276 20.3789 79.9642 20.3789V22.2522H79.9188ZM84.0102 18.5969C84.0102 15.17 82.5555 12.1086 77.6003 12.1086C75.0546 12.1086 73.0089 12.8397 71.9178 13.4794L72.7361 16.2666C74.009 15.5355 75.4182 15.1243 76.873 15.0786C79.4187 15.0786 79.8279 16.495 79.8279 17.4089V17.6373C74.3272 17.6373 70.8722 19.5564 70.8722 23.4402C70.8722 25.8162 72.6452 28.0551 75.7365 28.0551C77.6003 28.0551 79.1914 27.324 80.1461 26.0903H80.237C80.237 26.0903 80.8734 28.7405 84.3284 27.7353C84.1466 26.6386 84.0556 25.4507 84.0556 24.0799V18.5969H84.0102ZM0 7.40234L4.18233 24.5825C4.86423 27.3697 6.04619 28.4206 9.50115 27.7353L11.7287 18.5969C12.2742 16.3123 12.6834 14.7131 13.047 12.3828H13.0925C13.3653 14.7131 13.7289 16.3123 14.1835 18.5969L15.5473 24.948C16.0474 27.1413 17.3203 28.512 20.7298 27.7353L26.0486 7.44803H21.7299L19.9115 16.2209C19.4114 18.7796 18.9568 20.7901 18.6386 23.1204C18.3204 20.7901 17.9113 18.871 17.4112 16.4037L15.5473 7.44803H11.0468L9.00109 16.1752C8.45557 18.8253 7.91005 20.9729 7.54637 23.2118H7.50091C7.13723 21.1099 6.68263 18.4141 6.18257 15.8554L4.54601 7.40234H0ZM33.9587 22.2522C33.9587 22.5264 33.9587 22.8462 33.8677 23.0747C33.4586 24.2627 32.3676 25.0394 31.0947 25.0394C29.9582 25.0394 29.0944 24.3997 29.0944 23.029C29.0944 20.9272 31.3674 20.3789 34.0041 20.3789V22.2522H33.9587ZM38.0955 18.5969C38.0955 15.17 36.6408 12.1086 31.6857 12.1086C29.1399 12.1086 27.0942 12.8397 26.0032 13.4794L26.8214 16.2666C28.0943 15.5355 29.5036 15.1243 30.9583 15.0786C33.5041 15.0786 33.9132 16.495 33.9132 17.4089V17.6373C28.4125 17.6373 24.9576 19.5564 24.9576 23.4402C24.9576 25.8162 26.7305 28.0551 29.8218 28.0551C31.6857 28.0551 33.2768 27.324 34.2314 26.0903H34.3223C34.3223 26.0903 34.9588 28.7405 38.4137 27.7353C38.2319 26.6386 38.141 25.4507 38.141 24.0799V18.5969H38.0955ZM44.4145 23.3945V7.40234H40.3231V27.6896H44.4145V23.3945ZM96.6026 7.44803V22.3893C96.6026 24.4454 96.9663 25.9076 97.83 26.7757C98.5574 27.5525 99.7394 28.0551 101.149 28.0551C102.376 28.0551 103.558 27.8266 104.104 27.5982L104.058 24.3541C103.649 24.4911 103.149 24.5368 102.512 24.5368C101.103 24.5368 100.649 23.6687 100.649 21.7953V16.1295H104.24V12.2457H100.649V7.40234L96.6026 7.44803ZM86.0104 12.4742V27.7353H90.2382V19.9219C90.2382 19.5107 90.2837 19.1452 90.3291 18.7796C90.6474 17.1347 91.8748 16.0838 93.6932 16.0838C94.1932 16.0838 94.5115 16.1295 94.9206 16.1752V12.1543C94.6024 12.1086 94.2842 12.0629 94.0114 12.0629C92.4203 12.0629 90.6474 13.0682 89.8745 15.3071H89.7836V12.4285L86.0104 12.4742ZM46.8239 12.4742V27.7353H50.9153V18.7796C50.9153 18.3684 50.9607 17.9115 51.0971 17.546C51.4153 16.6321 52.2791 15.5812 53.5974 15.5812C55.2794 15.5812 56.0523 16.9977 56.0523 19.0081V27.6896H60.1891V18.6426C60.1891 18.2313 60.2346 17.7287 60.371 17.4089C60.6892 16.3123 61.7348 15.5355 62.8713 15.5355C64.5533 15.5355 65.3716 16.9063 65.3716 19.3279V27.6896H69.5084V18.7339C69.5084 14.0277 67.099 12.1086 64.4169 12.1086C63.1895 12.1086 62.2803 12.4285 61.4165 12.9311C60.6892 13.388 60.0527 14.0277 59.5072 14.8501H59.4618C58.7799 13.1595 57.0978 12.0629 55.2794 12.1086C53.461 12.0172 51.7335 12.9311 50.8698 14.5303H50.8243V12.4742H46.8239Z" fill="#16062A"/>
<path fill-rule="evenodd" clip-rule="evenodd" d="M126.379 11.7885C127.197 11.7885 127.879 11.3316 127.97 10.829L128.743 1.64491C128.743 0.73107 127.697 0 126.379 0C125.061 0 124.015 0.73107 124.015 1.64491L124.833 10.829C124.879 11.3773 125.561 11.7885 126.379 11.7885ZM121.424 14.6671C121.833 13.936 121.788 13.1593 121.378 12.7937L113.878 7.53916C113.105 7.08225 111.923 7.63055 111.286 8.77285C110.604 9.91514 110.741 11.2402 111.514 11.6514L119.833 15.5352C120.333 15.718 121.06 15.3525 121.424 14.6671ZM131.289 14.6214C131.698 15.3525 132.38 15.718 132.925 15.4896L141.199 11.6057C141.972 11.1488 142.108 9.86945 141.426 8.72715C140.744 7.58486 139.608 7.03655 138.835 7.49347L131.334 12.7937C130.925 13.1593 130.88 13.936 131.289 14.6214ZM126.379 23.2115C127.197 23.2115 127.879 23.6684 127.97 24.171L128.743 33.3551C128.743 34.2689 127.697 35 126.379 35C125.061 35 124.015 34.2689 124.015 33.3551L124.833 24.171C124.879 23.6227 125.561 23.2115 126.379 23.2115ZM131.289 20.3786C131.698 19.6475 132.38 19.282 132.925 19.4648L141.199 23.3486C141.972 23.8055 142.108 25.0849 141.426 26.2272C140.744 27.3695 139.608 27.9178 138.835 27.4608L131.334 22.2063C130.925 21.8864 130.88 21.064 131.289 20.3786ZM121.424 20.3786C121.833 21.064 121.788 21.8864 121.378 22.252L113.878 27.5065C113.105 27.9634 111.923 27.4151 111.286 26.2728C110.604 25.1305 110.741 23.8512 111.514 23.3943L119.833 19.5104C120.333 19.282 121.06 19.6475 121.424 20.3786ZM142.972 26.6841H143.063C143.154 26.6841 143.245 26.6384 143.245 26.5927C143.245 26.5013 143.199 26.5013 143.108 26.5013H143.017V26.6841H142.972ZM142.972 27.0953H142.79V26.3642H143.063C143.199 26.3642 143.245 26.3642 143.336 26.4099C143.381 26.4556 143.427 26.5013 143.427 26.547C143.427 26.6384 143.381 26.6841 143.29 26.7298C143.381 26.7755 143.427 26.8211 143.427 26.9125C143.427 27.0496 143.472 27.0496 143.472 27.0953H143.29C143.245 27.0496 143.245 27.0039 143.245 26.9125C143.245 26.8211 143.199 26.8211 143.108 26.8211H143.017L142.972 27.0953ZM143.063 26.1358C142.745 26.1358 142.517 26.4099 142.517 26.7298C142.517 27.0496 142.745 27.3238 143.063 27.3238C143.381 27.3238 143.608 27.0496 143.608 26.7298C143.654 26.4099 143.381 26.1358 143.063 26.1358ZM143.063 25.9987C143.472 25.9987 143.79 26.3185 143.79 26.7298C143.79 27.141 143.472 27.4608 143.063 27.4608C142.654 27.4608 142.29 27.141 142.29 26.7298C142.336 26.3185 142.654 25.9987 143.063 25.9987Z" fill="#F3B53B"/>
</g>
</svg>
