<svg width="150" height="35" viewBox="0 0 150 35" fill="none" xmlns="http://www.w3.org/2000/svg">
<g clip-path="url(#clip0_41_277)">
<mask id="mask0_41_277" style="mask-type:luminance" maskUnits="userSpaceOnUse" x="0" y="0" width="150" height="35">
<path d="M150 0H0V35H150V0Z" fill="white"/>
</mask>
<g mask="url(#mask0_41_277)">
<path d="M150 26.8004H145.303V15.6399C145.303 13.59 144.091 11.9197 141.742 11.9197C139.04 11.9197 137.247 14.6529 137.247 17.791V26.8004H132.55V8.25018H137.247V10.8568C138.636 8.73102 140.833 7.71873 143.51 7.71873C146.995 7.71873 150 10.2495 150 14.1468V26.8004ZM10.9848 7.36443C10.5556 8.6551 10.9848 9.97108 11.8434 10.8315C12.6515 11.6414 15.7323 14.7542 17.4747 14.7542C19.2172 14.7542 22.2727 11.6414 23.1061 10.8315C23.9646 9.97108 24.3939 8.6551 23.9646 7.36443C23.3586 5.5423 18.3333 0.860448 17.4747 0C16.6162 0.860448 11.5909 5.5423 10.9848 7.36443ZM27.5758 11.0087C26.2879 10.5785 24.9747 11.0087 24.1162 11.8691C23.3081 12.679 20.202 15.7664 20.202 17.5127C20.202 19.2589 23.3081 22.321 24.1162 23.1562C24.9747 24.0166 26.2879 24.4469 27.5758 24.0166C29.3939 23.4093 34.0657 18.3731 34.9242 17.5127C34.0657 16.6269 29.4192 11.6161 27.5758 11.0087ZM7.34848 23.9913C8.63636 24.4215 9.94949 23.9913 10.8081 23.1309C11.6162 22.321 14.7222 19.2335 14.7222 17.5127C14.7222 15.7918 11.6162 12.679 10.8081 11.8691C9.94949 11.0087 8.63636 10.5785 7.34848 11.0087C5.5303 11.6161 0.858586 16.6269 0 17.5127C0.858586 18.3731 5.5303 23.3839 7.34848 23.9913ZM23.9646 27.6356C24.3939 26.3449 23.9646 25.0289 23.1061 24.1685C22.2727 23.3586 19.1919 20.2458 17.4747 20.2458C15.7576 20.2458 12.6768 23.3586 11.8434 24.1685C10.9848 25.0289 10.5556 26.3449 10.9848 27.6356C11.5909 29.4577 16.6162 34.1396 17.4747 35C18.3333 34.1396 23.3586 29.4577 23.9646 27.6356ZM129.495 16.7281C129.495 11.6667 125.657 7.51627 120.151 7.51627C114.419 7.51627 110.455 11.5148 110.455 17.4114C110.455 23.308 114.975 27.3319 120.076 27.3319C124.773 27.3319 127.449 25.3073 129.091 21.9161L125.202 19.9422C124.268 22.0427 122.879 23.2321 120.278 23.2321C117.449 23.2321 115.505 21.41 115.202 18.5503H129.52V16.7281H129.495ZM115.354 15.0832C116.01 12.6537 117.803 11.1605 120.101 11.1605C122.399 11.1605 124.217 12.6537 124.848 15.0832H115.354ZM57.4242 8.25018V10.1229C56.3384 8.68041 54.2929 7.71873 51.9444 7.71873C46.7929 7.71873 42.7273 11.363 42.7273 17.538C42.7273 23.7129 46.7929 27.3319 52.0202 27.3319C54.3939 27.3319 56.4899 26.3449 57.4242 24.8518V26.8257H62.1212V8.25018H57.4242ZM52.702 23.2068C49.7727 23.2068 47.6768 20.9544 47.6768 17.5127C47.6768 14.0709 49.7727 11.8185 52.702 11.8185C55.6313 11.8185 57.7273 14.0709 57.7273 17.5127C57.7273 20.9544 55.6313 23.2068 52.702 23.2068ZM66.2879 8.25018V34.4179H70.9848V25.1302C72.0202 26.4461 74.0404 27.3066 76.3889 27.3066C81.5909 27.3066 85.6818 23.6876 85.6818 17.5127C85.6818 11.3377 81.6161 7.69342 76.4646 7.69342C74.0909 7.69342 71.9949 8.75633 70.9848 10.1735V8.22487H66.2879V8.25018ZM70.6818 17.538C70.6818 14.0962 72.7778 11.8438 75.7071 11.8438C78.6363 11.8438 80.7323 14.0962 80.7323 17.538C80.7323 20.9798 78.6363 23.2321 75.7071 23.2321C72.7778 23.2068 70.6818 20.9544 70.6818 17.538ZM88.5606 8.25018V34.4179H93.2576V25.1302C94.2929 26.4461 96.3131 27.3066 98.6616 27.3066C103.864 27.3066 107.955 23.6876 107.955 17.5127C107.955 11.3377 103.889 7.69342 98.7374 7.69342C96.3636 7.69342 94.2677 8.75633 93.2576 10.1735V8.22487H88.5606V8.25018ZM92.9545 17.538C92.9545 14.0962 95.0505 11.8438 97.9798 11.8438C100.909 11.8438 103.005 14.0962 103.005 17.538C103.005 20.9798 100.909 23.2321 97.9798 23.2321C95.0505 23.2068 92.9545 20.9544 92.9545 17.538Z" fill="#16062A"/>
</g>
</g>
<defs>
<clipPath id="clip0_41_277">
<rect width="150" height="35" fill="white"/>
</clipPath>
</defs>
</svg>
