<svg width="145" height="35" viewBox="0 0 145 35" fill="none" xmlns="http://www.w3.org/2000/svg">
<g clip-path="url(#clip0_41_285)">
<mask id="mask0_41_285" style="mask-type:luminance" maskUnits="userSpaceOnUse" x="0" y="0" width="145" height="35">
<path d="M144.308 0H0V35H144.308V0Z" fill="white"/>
</mask>
<g mask="url(#mask0_41_285)">
<path d="M142.278 32.7402C142.367 32.7411 142.455 32.7239 142.537 32.6896C142.618 32.6553 142.692 32.6048 142.753 32.541C142.814 32.4773 142.862 32.4017 142.892 32.319C142.923 32.2363 142.936 32.1483 142.931 32.0603C142.931 31.5781 142.638 31.3477 142.037 31.3477H141.066V33.8723H141.431V32.7718H141.88L141.89 32.7852L142.587 33.8723H142.977L142.228 32.7472L142.278 32.7402ZM141.856 32.4873H141.432V31.6339H141.969C142.246 31.6339 142.563 31.6789 142.563 32.0394C142.563 32.4541 142.243 32.4873 141.854 32.4873" fill="#16062A"/>
<path d="M0 5.13574H5.39082V24.6379H15.3708V29.5788H0V5.13574Z" fill="#16062A"/>
<path d="M17.7533 13.0063H22.9321V29.5703H17.7533V13.0063ZM20.3427 4.77148C20.9369 4.77159 21.5177 4.94667 22.0117 5.27459C22.5056 5.60252 22.8906 6.06855 23.1179 6.61376C23.3452 7.15898 23.4046 7.75889 23.2886 8.33764C23.1727 8.91639 22.8865 9.44799 22.4663 9.86522C22.0462 10.2824 21.5109 10.5666 20.9281 10.6816C20.3453 10.7967 19.7413 10.7376 19.1924 10.5118C18.6435 10.2859 18.1743 9.90349 17.8442 9.41283C17.5141 8.92217 17.3379 8.34532 17.3379 7.75521C17.3379 7.36334 17.4157 6.9753 17.5667 6.61327C17.7177 6.25123 17.939 5.92228 18.2181 5.64521C18.4971 5.36814 18.8283 5.14837 19.1929 4.99845C19.5575 4.84854 19.9482 4.77141 20.3427 4.77148Z" fill="#16062A"/>
<path d="M44.5977 5.13281H49.7765V19.7407L55.6458 12.9991H61.9953L55.1981 20.6676L61.8523 29.5775H55.3432L49.8456 21.3898H49.7776V29.5765H44.5987L44.5977 5.13281Z" fill="#16062A"/>
<path d="M25.8047 13.0076H30.7779V15.2713H30.8486C31.3454 14.426 32.0639 13.7307 32.9276 13.2594C33.7913 12.7882 34.7676 12.5587 35.7523 12.5956C41.0039 12.5956 41.9706 16.0273 41.9706 20.4854V29.569H36.7918V21.5157C36.7918 19.5934 36.7562 17.1224 34.0945 17.1224C31.4026 17.1224 30.9873 19.2157 30.9873 21.3759V29.5668H25.8084L25.8047 13.0076Z" fill="#16062A"/>
<path d="M72.9012 19.3622C72.9111 18.9449 72.8356 18.53 72.6793 18.1425C72.523 17.7551 72.2891 17.4032 71.9918 17.1081C71.6946 16.8131 71.3401 16.581 70.9498 16.426C70.5596 16.2711 70.1418 16.1964 69.7216 16.2065C68.8168 16.1506 67.926 16.4501 67.2414 17.0404C66.5568 17.6307 66.1332 18.4646 66.0619 19.3622H72.9012ZM77.2881 26.7023C76.4275 27.7388 75.3456 28.5722 74.1207 29.1421C72.8959 29.7121 71.5587 30.0044 70.2061 29.9979C65.0272 29.9979 60.8809 26.5646 60.8809 21.2481C60.8809 15.9316 65.0267 12.5 70.2061 12.5C75.0466 12.5 78.0822 15.929 78.0822 21.2481V22.8608H66.0619C66.2116 23.7754 66.689 24.6055 67.4062 25.1981C68.1235 25.7907 69.0322 26.1059 69.9649 26.0856C70.702 26.0811 71.4263 25.8935 72.0718 25.54C72.7173 25.1865 73.2635 24.6782 73.6608 24.0615L77.2881 26.7023Z" fill="#16062A"/>
<path d="M88.877 17.01C86.2876 17.01 84.7339 18.7272 84.7339 21.2293C84.7339 23.7313 86.287 25.4501 88.877 25.4501C91.4669 25.4501 93.0238 23.7356 93.0238 21.2293C93.0238 18.7229 91.4696 17.01 88.877 17.01ZM97.7916 29.567H93.0238V27.3703H92.9532C92.355 28.1693 91.5792 28.8204 90.6862 29.2728C89.7931 29.7252 88.807 29.9667 87.8046 29.9785C82.8286 29.9785 79.5508 26.4118 79.5508 21.368C79.5508 16.7357 82.4515 12.4822 87.2198 12.4822C89.363 12.4822 91.365 13.0646 92.5394 14.6789H92.6073V5.13086H97.791L97.7916 29.567Z" fill="#16062A"/>
<path d="M132.753 29.5771H127.575V21.5223C127.575 19.6015 127.54 17.1289 124.881 17.1289C122.184 17.1289 121.771 19.2217 121.771 21.3825V29.5766H116.592V13.0126H121.564V15.2762H121.634C122.131 14.4313 122.85 13.7363 123.714 13.2651C124.578 12.7939 125.554 12.5643 126.539 12.6006C131.788 12.6006 132.756 16.0295 132.756 20.4904L132.753 29.5771ZM110.749 10.7484C110.154 10.7485 109.573 10.5736 109.079 10.2457C108.585 9.91778 108.2 9.45168 107.972 8.90632C107.744 8.36096 107.685 7.76083 107.801 7.18182C107.916 6.6028 108.203 6.07091 108.623 5.6534C109.043 5.2359 109.579 4.95153 110.161 4.83625C110.744 4.72098 111.349 4.77998 111.898 5.0058C112.447 5.23161 112.917 5.61409 113.247 6.10488C113.577 6.59567 113.754 7.17272 113.754 7.76306C113.754 8.15503 113.676 8.54317 113.525 8.90533C113.374 9.26749 113.153 9.59658 112.874 9.87379C112.595 10.151 112.263 10.3709 111.899 10.521C111.534 10.6711 111.144 10.7483 110.749 10.7484ZM113.338 29.5771H108.154V13.0126H113.338V29.5771ZM135.335 0.002365H105.552C104.876 -0.00521158 104.224 0.254069 103.741 0.723232C103.257 1.19239 102.981 1.83305 102.973 2.50443V32.2072C102.981 32.879 103.257 33.5201 103.74 33.9897C104.224 34.4593 104.875 34.7191 105.552 34.712H135.335C136.013 34.7204 136.666 34.4614 137.152 33.9917C137.637 33.5221 137.915 32.8803 137.925 32.2072V2.50229C137.915 1.82958 137.637 1.18819 137.151 0.71904C136.666 0.249889 136.013 -0.00865119 135.335 0.000221032" fill="#16062A"/>
<path d="M141.901 30.2236C141.271 30.2297 140.669 30.4832 140.227 30.9289C139.784 31.3746 139.538 31.9762 139.541 32.602C139.544 33.2278 139.796 33.8269 140.243 34.2683C140.69 34.7098 141.294 34.9576 141.924 34.9576C142.554 34.9576 143.159 34.7098 143.605 34.2683C144.052 33.8269 144.304 33.2278 144.307 32.602C144.31 31.9762 144.064 31.3746 143.622 30.9289C143.179 30.4832 142.577 30.2297 141.947 30.2236H141.901ZM141.901 34.6866C141.488 34.6935 141.082 34.5784 140.734 34.3561C140.387 34.1337 140.114 33.814 139.949 33.4374C139.785 33.0608 139.736 32.6442 139.81 32.2403C139.884 31.8364 140.077 31.4634 140.364 31.1683C140.652 30.8732 141.021 30.6694 141.425 30.5826C141.829 30.4959 142.249 30.53 142.634 30.6808C143.018 30.8315 143.349 31.0921 143.585 31.4296C143.82 31.7671 143.949 32.1663 143.956 32.5768C143.956 32.5885 143.956 32.5998 143.956 32.6116C143.968 33.15 143.763 33.671 143.388 34.0599C143.013 34.4489 142.498 34.6739 141.956 34.6856H141.902" fill="#16062A"/>
</g>
</g>
<defs>
<clipPath id="clip0_41_285">
<rect width="145" height="35" fill="white"/>
</clipPath>
</defs>
</svg>
