<svg width="20" height="20" viewBox="0 0 20 20" fill="none" xmlns="http://www.w3.org/2000/svg">
<path d="M16.9954 12.4519C16.354 11.8517 15.3844 11.9244 14.826 12.6148L13.5476 14.195C12.92 14.9708 11.8578 15.1344 11.0516 14.5792C10.0806 13.9104 6.15719 10.2455 5.40574 9.30519C4.78197 8.52465 4.7848 7.37139 5.41231 6.5956L6.68862 5.00984C7.24827 4.3145 7.17921 3.26017 6.53455 2.65692L4.23285 0.503083C3.59075 -0.0977366 2.61996 -0.0239866 2.06192 0.66805L1.03067 1.94693C-0.755141 4.15448 -0.0053137 8.20136 1.64485 10.5309C2.79816 12.1591 8.99469 17.9459 10.6752 18.947C13.0431 20.3576 16.8644 20.534 18.6391 18.3402L19.6219 17.1182C20.1811 16.4229 20.112 15.3689 19.4676 14.7658L16.9954 12.4519Z" fill="#C90F16"/>
<path d="M18.3231 7.34229C18.0246 7.34229 17.7826 7.0815 17.7826 6.75977C17.7826 3.67483 15.4612 1.16506 12.6079 1.16506C12.3094 1.16506 12.0674 0.904262 12.0674 0.582528C12.0674 0.260793 12.3094 0 12.6079 0C16.0573 0 18.8636 3.03243 18.8636 6.75977C18.8636 7.08145 18.6216 7.34229 18.3231 7.34229Z" fill="#C90F16"/>
<path d="M15.4898 7.58977C15.1913 7.58977 14.9493 7.32897 14.9493 7.00724C14.9493 5.47295 13.7951 4.22478 12.3765 4.22478C12.078 4.22478 11.8359 3.96398 11.8359 3.64225C11.8359 3.32052 12.078 3.05972 12.3765 3.05972C14.3912 3.05972 16.0303 4.8306 16.0303 7.00729C16.0303 7.32897 15.7883 7.58977 15.4898 7.58977Z" fill="#C90F16"/>
</svg>
