<svg width="40" height="40" viewBox="0 0 40 40" fill="none" xmlns="http://www.w3.org/2000/svg">
<g clip-path="url(#clip0_41_526)">
<path d="M20 0C8.98758 0 0 8.9882 0 20C0 31.0124 8.9882 40 20 40C31.0124 40 40 31.0117 40 20C40 8.98758 31.0118 0 20 0ZM20 37.6562C10.2643 37.6562 2.34375 29.7357 2.34375 20C2.34375 10.2643 10.2643 2.34375 20 2.34375C29.7357 2.34375 37.6562 10.2643 37.6562 20C37.6562 29.7357 29.7357 37.6562 20 37.6562Z" fill="white"/>
<path d="M10.0566 31.1155C10.7038 31.1155 11.2285 30.5908 11.2285 29.9436C11.2285 29.2964 10.7038 28.7717 10.0566 28.7717C9.40943 28.7717 8.88477 29.2964 8.88477 29.9436C8.88477 30.5908 9.40943 31.1155 10.0566 31.1155Z" fill="white"/>
<path d="M29.9434 11.2283C30.5906 11.2283 31.1152 10.7036 31.1152 10.0564C31.1152 9.40919 30.5906 8.88452 29.9434 8.88452C29.2962 8.88452 28.7715 9.40919 28.7715 10.0564C28.7715 10.7036 29.2962 11.2283 29.9434 11.2283Z" fill="white"/>
<path d="M9.22801 9.22776C8.77035 9.68542 8.77035 10.4274 9.22801 10.885C9.68566 11.3427 10.4276 11.3427 10.8853 10.885C11.3429 10.4274 11.3429 9.68542 10.8853 9.22776C10.4277 8.77011 9.68566 8.77011 9.22801 9.22776Z" fill="white"/>
<path d="M29.1147 29.115C28.6571 29.5726 28.6571 30.3146 29.1147 30.7722C29.5724 31.2299 30.3143 31.2299 30.772 30.7722C31.2296 30.3146 31.2296 29.5726 30.772 29.115C30.3143 28.6573 29.5723 28.6573 29.1147 29.115Z" fill="white"/>
<path d="M20 9.45312C20.6472 9.45312 21.1719 8.92844 21.1719 8.28125V5.9375C21.1719 5.29031 20.6472 4.76562 20 4.76562C19.3528 4.76562 18.8281 5.29031 18.8281 5.9375V8.28125C18.8281 8.92844 19.3528 9.45312 20 9.45312Z" fill="white"/>
<path d="M20 30.5469C19.3528 30.5469 18.8281 31.0716 18.8281 31.7188V34.0625C18.8281 34.7097 19.3528 35.2344 20 35.2344C20.6472 35.2344 21.1719 34.7097 21.1719 34.0625V31.7188C21.1719 31.0716 20.6472 30.5469 20 30.5469Z" fill="white"/>
<path d="M9.45312 20C9.45312 19.3528 8.92844 18.8281 8.28125 18.8281H5.9375C5.29031 18.8281 4.76562 19.3528 4.76562 20C4.76562 20.6472 5.29031 21.1719 5.9375 21.1719H8.28125C8.92844 21.1719 9.45312 20.6472 9.45312 20Z" fill="white"/>
<path d="M30.5469 20C30.5469 20.6472 31.0716 21.1719 31.7188 21.1719H34.0625C34.7097 21.1719 35.2344 20.6472 35.2344 20C35.2344 19.3528 34.7097 18.8281 34.0625 18.8281H31.7188C31.0716 18.8281 30.5469 19.3528 30.5469 20Z" fill="white"/>
<path d="M21.1719 19.5146V12.9688C21.1719 12.3216 20.6472 11.7969 20 11.7969C19.3528 11.7969 18.8281 12.3216 18.8281 12.9688V20C18.8281 20.3108 18.9516 20.6088 19.1714 20.8287L26.2027 27.8599C26.6602 28.3175 27.4023 28.3176 27.8599 27.8599C28.3176 27.4023 28.3176 26.6603 27.8599 26.2027L21.1719 19.5146Z" fill="white"/>
</g>
<defs>
<clipPath id="clip0_41_526">
<rect width="40" height="40" fill="white"/>
</clipPath>
</defs>
</svg>
