<svg width="40" height="40" viewBox="0 0 40 40" fill="none" xmlns="http://www.w3.org/2000/svg">
<path d="M15.6059 34.4233C11.7478 33.2237 9.15556 29.7005 9.15556 25.6562C9.15556 23.6794 9.77442 21.796 10.9453 20.2097C10.972 20.1735 10.9961 20.134 11.0163 20.0937C11.2097 19.7068 11.0526 19.237 10.6657 19.0435C10.3155 18.8681 9.8966 18.9808 9.67682 19.2905C8.31104 21.1459 7.58911 23.3468 7.58911 25.6562C7.58911 27.9949 8.32757 30.2185 9.7246 32.0864C11.0749 33.8919 12.9984 35.2531 15.1408 35.9192C15.2183 35.9433 15.2966 35.9548 15.3736 35.9548C15.7075 35.9548 16.0169 35.7395 16.1213 35.4038C16.2497 34.9907 16.019 34.5518 15.6059 34.4233Z" fill="white"/>
<path d="M35.6834 18.3032C35.6834 16.8123 35.2187 15.3918 34.3394 14.1939L29.3813 6.8335C29.2357 6.6174 28.9923 6.48785 28.7317 6.48785C28.4711 6.48785 28.2276 6.6174 28.082 6.8335L25.9928 9.93499L19.5329 0.345654C19.3873 0.129552 19.1438 0 18.8833 0C18.6228 0 18.3793 0.129552 18.2338 0.345654L7.14462 16.8069C5.2944 19.3213 4.31665 22.3037 4.31665 25.4333C4.31665 33.4654 10.8513 40 18.8833 40C26.9154 40 33.45 33.4654 33.45 25.4333C33.45 24.7922 33.4071 24.1498 33.3239 23.5175C34.7696 22.2426 35.6834 20.3778 35.6834 18.3032ZM28.7317 8.67307L33.04 15.0687C33.0486 15.082 33.0577 15.0951 33.0672 15.108C33.7539 16.0379 34.1168 17.1428 34.1168 18.3031C34.1168 21.2725 31.7011 23.6882 28.7317 23.6882C25.7623 23.6882 23.3466 21.2725 23.3466 18.3031C23.3466 17.1428 23.7095 16.0379 24.3962 15.108C24.4053 15.0957 24.414 15.0831 24.4224 15.0702L26.6408 11.777C26.6449 11.771 26.6491 11.765 26.653 11.7588L28.7317 8.67307ZM31.8834 25.4333C31.8834 32.6017 26.0515 38.4335 18.8832 38.4335C11.7149 38.4335 5.8831 32.6017 5.8831 25.4333C5.8831 22.6336 6.75957 19.9662 8.4179 17.7197C8.42737 17.7069 8.43654 17.6935 8.44539 17.6798L18.8833 2.18515L25.0485 11.337L23.1239 14.194C22.2447 15.3918 21.7801 16.8124 21.7801 18.3032C21.7801 22.1364 24.8985 25.2548 28.7317 25.2548C29.8525 25.2548 30.912 24.9878 31.8505 24.5147C31.8719 24.8201 31.8834 25.1268 31.8834 25.4333Z" fill="white"/>
<path d="M25.97 18.1122C25.97 17.7327 26.0473 17.3665 26.1997 17.0236C26.3755 16.6283 26.1974 16.1654 25.8022 15.9897C25.4069 15.8142 24.944 15.9919 24.7683 16.3872C24.5262 16.9317 24.4034 17.5121 24.4034 18.1122C24.4034 19.5338 25.1096 20.8551 26.2924 21.6465C26.4262 21.7361 26.5775 21.7788 26.7273 21.7788C26.98 21.7788 27.228 21.6568 27.379 21.4311C27.6195 21.0715 27.5231 20.585 27.1636 20.3445C26.4162 19.8444 25.97 19.0099 25.97 18.1122Z" fill="white"/>
<path d="M18.5116 35.5084C18.3199 35.0045 17.6045 34.8607 17.2341 35.2546C16.7932 35.6819 17.0306 36.4664 17.6352 36.576C18.2346 36.7074 18.7571 36.0711 18.5116 35.5084Z" fill="white"/>
<path d="M28.3186 22.3604C28.8236 22.7102 29.5469 22.3235 29.5366 21.7096C29.5479 21.0956 28.8233 20.708 28.3186 21.0579C27.8612 21.3445 27.8594 22.0747 28.3186 22.3604Z" fill="white"/>
</svg>
