<svg width="40" height="40" viewBox="0 0 40 40" fill="none" xmlns="http://www.w3.org/2000/svg">
<g clip-path="url(#clip0_41_571)">
<path d="M39 17.32C38.9988 17.3191 38.9978 17.3178 38.9969 17.3169L22.6801 1.00067C21.9846 0.304871 21.0599 -0.078125 20.0763 -0.078125C19.0927 -0.078125 18.168 0.304871 17.4722 1.00067L1.16391 17.3087C1.15841 17.3142 1.15262 17.32 1.14743 17.3255C-0.280798 18.7619 -0.278356 21.0926 1.15445 22.5254C1.80905 23.1803 2.67331 23.5593 3.59769 23.5993C3.63553 23.603 3.67337 23.6048 3.71152 23.6048H4.36155V35.6123C4.36155 37.9887 6.29514 39.922 8.67155 39.922H15.0552C15.7025 39.922 16.2271 39.3971 16.2271 38.7501V29.336C16.2271 28.2517 17.1094 27.3697 18.1937 27.3697H21.9589C23.0432 27.3697 23.9252 28.2517 23.9252 29.336V38.7501C23.9252 39.3971 24.4498 39.922 25.0971 39.922H31.4807C33.8575 39.922 35.7907 37.9887 35.7907 35.6123V23.6048H36.3938C37.377 23.6048 38.3017 23.2218 38.9978 22.5257C40.4322 21.0907 40.4328 18.7558 39 17.32ZM37.3404 20.8686C37.0874 21.1216 36.7511 21.261 36.3938 21.261H34.6189C33.9716 21.261 33.447 21.7856 33.447 22.4329V35.6123C33.447 36.6962 32.565 37.5782 31.4807 37.5782H26.2689V29.336C26.2689 26.9596 24.3356 25.026 21.9589 25.026H18.1937C15.8169 25.026 13.8834 26.9596 13.8834 29.336V37.5782H8.67155C7.58756 37.5782 6.7053 36.6962 6.7053 35.6123V22.4329C6.7053 21.7856 6.1807 21.261 5.53342 21.261H3.78903C3.77072 21.2598 3.75272 21.2589 3.7341 21.2586C3.38498 21.2525 3.05753 21.1139 2.81216 20.8683C2.29031 20.3464 2.29031 19.4971 2.81216 18.975C2.81247 18.975 2.81247 18.9746 2.81278 18.9743L2.81369 18.9734L19.1299 2.65778C19.3826 2.40479 19.7186 2.26563 20.0763 2.26563C20.4337 2.26563 20.7697 2.40479 21.0226 2.65778L37.3352 18.9701C37.3377 18.9725 37.3404 18.975 37.3429 18.9774C37.862 19.5002 37.8611 20.3476 37.3404 20.8686Z" fill="white"/>
</g>
<defs>
<clipPath id="clip0_41_571">
<rect width="40" height="40" fill="white"/>
</clipPath>
</defs>
</svg>
