<svg width="30" height="30" viewBox="0 0 30 30" fill="none" xmlns="http://www.w3.org/2000/svg">
<path fill-rule="evenodd" clip-rule="evenodd" d="M30 14.546L15.541 23.841C15.211 24.053 14.789 24.053 14.459 23.841L0 14.546V27C0 28.656 1.344 30 3 30H27C28.656 30 30 28.656 30 27V14.546ZM6.28 9.491L6.241 9.442L1 12.811L15 21.811L29 12.811L23.759 9.442C23.629 9.61 23.489 9.775 23.34 9.937C22.506 10.84 21.329 11.644 20.126 12.287L17.572 16.543C17.03 17.447 16.054 18 15 18C13.946 18 12.97 17.447 12.428 16.543L9.874 12.288C8.67 11.643 7.494 10.84 6.66 9.937C6.526 9.791 6.399 9.643 6.28 9.491ZM11.296 10.77L14.143 15.514C14.323 15.816 14.649 16 15 16C15.351 16 15.677 15.816 15.857 15.514L18.704 10.77C19.867 10.195 21.065 9.452 21.87 8.58C22.58 7.811 23 6.938 23 6C23 4.632 22.399 3.357 21.346 2.332C19.913 0.935 17.608 0 15 0C12.392 0 10.087 0.935 8.654 2.332C7.601 3.357 7 4.632 7 6C7 6.938 7.42 7.811 8.13 8.58C8.935 9.452 10.132 10.195 11.296 10.77ZM12 5C11.448 5 11 5.448 11 6C11 6.552 11.448 7 12 7C12.552 7 13 6.552 13 6C13 5.448 12.552 5 12 5ZM15 5C14.448 5 14 5.448 14 6C14 6.552 14.448 7 15 7C15.552 7 16 6.552 16 6C16 5.448 15.552 5 15 5ZM18 5C17.448 5 17 5.448 17 6C17 6.552 17.448 7 18 7C18.552 7 19 6.552 19 6C19 5.448 18.552 5 18 5Z" fill="#C90F16"/>
</svg>
