<svg width="40" height="40" viewBox="0 0 40 40" fill="none" xmlns="http://www.w3.org/2000/svg">
<path d="M29.9996 1.94287H9.99958C5.42815 1.94287 1.71387 5.7143 1.71387 10.2857V29.7143C1.71387 34.2857 5.42815 38 9.99958 38H29.9996C34.571 38.0572 38.2853 34.2857 38.2853 29.7143V10.2857C38.2853 5.7143 34.571 1.94287 29.9996 1.94287ZM35.371 29.7143C35.371 32.6857 32.971 35.1429 29.9424 35.1429H9.94244C6.97101 35.1429 4.51387 32.7429 4.51387 29.7143V10.2857C4.51387 7.3143 6.91387 4.85716 9.94244 4.85716H29.9424C32.9139 4.85716 35.371 7.25716 35.371 10.2857V29.7143Z" fill="white"/>
<path d="M25.7139 16.8L19.3139 12.2857C18.1139 11.4286 16.571 11.3143 15.2567 12C13.9424 12.6857 13.1424 14 13.1424 15.4857V24.5143C13.1424 26 13.9424 27.3143 15.2567 28C15.8282 28.2857 16.4567 28.4571 17.0853 28.4571C17.8853 28.4571 18.6853 28.2286 19.371 27.7143L25.7139 23.2C26.7424 22.4571 27.371 21.2571 27.371 20C27.371 18.7428 26.7424 17.5428 25.7139 16.8ZM24.0567 20.8571L17.7139 25.3714C17.2567 25.7143 16.7996 25.5428 16.6282 25.4286C16.4567 25.3143 16.0567 25.0857 16.0567 24.5143V15.4857C16.0567 14.9143 16.4567 14.6857 16.6282 14.5714C16.7424 14.5143 16.9139 14.4571 17.0853 14.4571C17.2567 14.4571 17.4853 14.5143 17.6567 14.6286L24.0567 19.1428C24.3424 19.3143 24.5139 19.6571 24.5139 20C24.5139 20.3428 24.3424 20.6286 24.0567 20.8571Z" fill="white"/>
</svg>
