<svg width="76" height="46" viewBox="0 0 76 46" fill="none" xmlns="http://www.w3.org/2000/svg">
<path d="M72.8369 1L73.1348 1.43652L74.208 3.00977L74.458 3.37793L74.3535 3.80957C73.4916 7.35319 72.3672 11.5855 70.9824 16.5039L70.9814 16.5068C69.5948 21.384 68.0893 26.2849 66.4639 31.209L66.4629 31.208C64.882 36.1416 63.2739 40.4435 61.6348 44.1074L61.3701 44.6982H39.6006L39.8604 43.4893C40.5734 40.1617 41.2628 36.6903 41.9287 33.0752L41.9307 33.0645C42.6443 29.4013 43.3103 25.7382 43.9287 22.0752C44.5471 18.4125 45.0939 14.8691 45.5693 11.4463L45.5713 11.4355C46.0944 7.9641 46.5213 4.78066 46.8535 1.88574L46.9551 1H72.8369Z" stroke="#C90F16" stroke-width="2"/>
<path d="M36.7686 1L36.5234 2.2002C35.6189 6.62742 34.6896 11.3167 33.7373 16.2686L33.7383 16.2695C32.8336 21.2215 32 26.0783 31.2383 30.8389C30.5252 35.5932 29.9555 39.9158 29.5283 43.8076L29.4307 44.6982H3.54395L3.24707 44.2617L2.17383 42.6885L1.91895 42.3145L2.03125 41.876C2.93897 38.3406 4.06147 34.1393 5.39746 29.2725L5.39941 29.2656C6.78542 24.3429 8.2667 19.4204 9.84375 14.498L9.8457 14.4922C11.4748 9.50894 13.1087 5.20518 14.749 1.58691L15.0156 1H36.7686Z" stroke="#C90F16" stroke-width="2"/>
</svg>
